<svg width="24" height="24" viewBox="0 0 24 24" fill="none" xmlns="http://www.w3.org/2000/svg">
  <path d="M9 5H7.8C6.1 5 5.25 5 4.63 5.42C4.36 5.6 4.13 5.83 3.95 6.1C3.53 6.72 3.53 7.57 3.53 9.27V16.2C3.53 17.9 3.53 18.75 3.95 19.37C4.13 19.64 4.36 19.87 4.63 20.05C5.25 20.47 6.1 20.47 7.8 20.47H16.2C17.9 20.47 18.75 20.47 19.37 20.05C19.64 19.87 19.87 19.64 20.05 19.37C20.47 18.75 20.47 17.9 20.47 16.2V9.27C20.47 7.57 20.47 6.72 20.05 6.1C19.87 5.83 19.64 5.6 19.37 5.42C18.75 5 17.9 5 16.2 5H15" stroke="#FFFFFF" stroke-width="1.9" stroke-linecap="round"/>
  <path d="M9 5.2C9 4.28 9.75 3.53 10.67 3.53H13.33C14.25 3.53 15 4.28 15 5.2V5.2C15 6.12 14.25 6.87 13.33 6.87H10.67C9.75 6.87 9 6.12 9 5.2V5.2Z" stroke="#FFFFFF" stroke-width="1.9"/>
  <path d="M8 12.2L10.15 14.35L16.2 9.65" stroke="#FFFFFF" stroke-width="2.1" stroke-linecap="round" stroke-linejoin="round"/>
</svg>
